<?xml version="1.0" encoding="UTF-8" standalone="no"?>
<!-- Created with Inkscape (http://www.inkscape.org/) -->

<svg
   xmlns:dc="http://purl.org/dc/elements/1.1/"
   xmlns:cc="http://creativecommons.org/ns#"
   xmlns:rdf="http://www.w3.org/1999/02/22-rdf-syntax-ns#"
   xmlns:svg="http://www.w3.org/2000/svg"
   xmlns="http://www.w3.org/2000/svg"
   xmlns:sodipodi="http://sodipodi.sourceforge.net/DTD/sodipodi-0.dtd"
   xmlns:inkscape="http://www.inkscape.org/namespaces/inkscape"
   width="39.873531mm"
   height="39.975361mm"
   viewBox="0 0 39.873531 39.975361"
   version="1.1"
   id="svg8"
   inkscape:version="0.92.3 (2405546, 2018-03-11)"
   sodipodi:docname="alexa.svg">
  <defs
     id="defs2" />
  <sodipodi:namedview
     id="base"
     pagecolor="#ffffff"
     bordercolor="#666666"
     borderopacity="1.0"
     inkscape:pageopacity="0.0"
     inkscape:pageshadow="2"
     inkscape:zoom="0.80799775"
     inkscape:cx="309.25535"
     inkscape:cy="-362.83269"
     inkscape:document-units="mm"
     inkscape:current-layer="layer1"
     showgrid="false"
     inkscape:measure-start="0,0"
     inkscape:measure-end="0,0"
     inkscape:window-width="1858"
     inkscape:window-height="1057"
     inkscape:window-x="-8"
     inkscape:window-y="-8"
     inkscape:window-maximized="1"
     fit-margin-top="0"
     fit-margin-left="0"
     fit-margin-right="0"
     fit-margin-bottom="0" />
  <metadata
     id="metadata5">
    <rdf:RDF>
      <cc:Work
         rdf:about="">
        <dc:format>image/svg+xml</dc:format>
        <dc:type
           rdf:resource="http://purl.org/dc/dcmitype/StillImage" />
        <dc:title></dc:title>
      </cc:Work>
    </rdf:RDF>
  </metadata>
  <g
     inkscape:label="Layer 1"
     inkscape:groupmode="layer"
     id="layer1"
     transform="translate(0,0.02795309)">
    <path
       style="opacity:1;vector-effect:none;fill:#ffffff;fill-opacity:1;fill-rule:nonzero;stroke:none;stroke-width:0.42785051;stroke-linecap:round;stroke-linejoin:round;stroke-miterlimit:4;stroke-dasharray:none;stroke-dashoffset:0;stroke-opacity:0.8"
       d="m 19.936761,39.947407 c 11.01084,-4e-5 19.93684,-8.94895 19.93677,-19.98793 C 39.873321,8.9206969 30.947401,-0.02791309 19.936761,-0.02795309 8.926131,-0.02791309 2.1000049e-4,8.9206969 0,19.959477 c -6.9999509e-5,10.10827 7.484251,18.46405 17.200321,19.80119 0.14586,-1.24275 1.12647,-5.37554 -1.45954,-6.10244 -5.84443,-1.79712 -10.09377,-7.25045 -10.09359,-13.69875 6e-5,-7.912 6.39774,-14.3258801 14.28957,-14.3257501 7.89162,1.6e-4 14.28898,6.4139501 14.28905,14.3257501 1e-4,3.51117 -1.05133,6.72735 -2.91074,9.21888 -2.33053,3.12284 -9.31234,9.01947 -14.11475,10.58231 0.89459,0.12312 1.80811,0.18674 2.73644,0.18674 z"
       id="path828"
       inkscape:connector-curvature="0"
       sodipodi:nodetypes="cccccccccccc" />
  </g>
</svg>
